<svg xmlns="http://www.w3.org/2000/svg" viewBox="0 0 400 800">
  <defs>
    <linearGradient id="screen" x1="0" y1="0" x2="0" y2="1">
      <stop offset="0%" stop-color="#f8f9fb"/>
      <stop offset="100%" stop-color="#ffffff"/>
    </linearGradient>
    <linearGradient id="brandGrad" x1="0" y1="0" x2="1" y2="1">
      <stop offset="0%" stop-color="#3563e9"/>
      <stop offset="100%" stop-color="#54a6ff"/>
    </linearGradient>
  </defs>
  <!-- Phone frame -->
  <rect x="20" y="20" width="360" height="760" rx="48" fill="#1a202c" stroke="#0a0c10" stroke-width="4"/>
  <!-- Notch -->
  <path d="M140 20 Q140 40 160 40 H240 Q260 40 260 20" fill="#1a202c"/>
  <!-- Screen -->
  <rect x="32" y="50" width="336" height="700" rx="32" fill="url(#screen)"/>
  <!-- Back arrow -->
  <path d="M60 90 L70 80 L60 70" stroke="#596780" stroke-width="3" fill="none" stroke-linecap="round" stroke-linejoin="round"/>
  <!-- Header text -->
  <text x="200" y="120" font-family="Arial, sans-serif" font-size="18" font-weight="600" fill="#1a202c" text-anchor="middle">Design Your T-Shirt</text>
  <!-- T-shirt preview -->
  <rect x="80" y="140" width="240" height="200" rx="20" fill="#ffffff" stroke="#e3e8ef" stroke-width="2"/>
  <text x="200" y="325" font-family="Arial, sans-serif" font-size="12" font-weight="600" fill="#596780" text-anchor="middle">360° Preview</text>
  <!-- Design options -->
  <text x="60" y="380" font-family="Arial, sans-serif" font-size="14" font-weight="700" fill="#1a202c">Customize Style</text>
  <!-- Color swatches -->
  <circle cx="80" cy="410" r="16" fill="#3563e9" stroke="#e3e8ef" stroke-width="2"/>
  <circle cx="120" cy="410" r="16" fill="#54a6ff" stroke="#e3e8ef" stroke-width="2"/>
  <circle cx="160" cy="410" r="16" fill="#ff6b35" stroke="#e3e8ef" stroke-width="2"/>
  <circle cx="200" cy="410" r="16" fill="#00d98b" stroke="#e3e8ef" stroke-width="2"/>
  <rect x="230" cy="395" width="110" height="30" rx="8" fill="#3563e9"/>
  <text x="285" y="415" font-family="Arial, sans-serif" font-size="11" font-weight="600" fill="#ffffff" text-anchor="middle">Add Text</text>
  <!-- Pattern options -->
  <text x="60" y="470" font-family="Arial, sans-serif" font-size="14" font-weight="700" fill="#1a202c">Pattern Library</text>
  <!-- Pattern 1: Geometric -->
  <rect x="60" y="485" width="90" height="80" rx="12" fill="#ffffff" stroke="#3563e9" stroke-width="2"/>
  <circle cx="105" cy="510" r="8" fill="#3563e9" opacity="0.3"/>
  <circle cx="105" cy="540" r="8" fill="#3563e9" opacity="0.3"/>
  <circle cx="90" cy="525" r="8" fill="#54a6ff" opacity="0.4"/>
  <circle cx="120" cy="525" r="8" fill="#54a6ff" opacity="0.4"/>
  <rect x="95" y="545" width="20" height="15" fill="#ff6b35" opacity="0.3"/>
  <!-- Pattern 2: Abstract Wave -->
  <rect x="165" y="485" width="90" height="80" rx="12" fill="#ffffff" stroke="#e3e8ef" stroke-width="2"/>
  <path d="M175 510 Q190 500 205 510 T235 510" stroke="#54a6ff" stroke-width="3" fill="none" opacity="0.5"/>
  <path d="M175 530 Q190 520 205 530 T235 530" stroke="#3563e9" stroke-width="3" fill="none" opacity="0.5"/>
  <path d="M175 550 Q190 540 205 550 T235 550" stroke="#00d98b" stroke-width="3" fill="none" opacity="0.5"/>
  <!-- Pattern 3: Dots Grid -->
  <rect x="270" y="485" width="70" height="80" rx="12" fill="#ffffff" stroke="#e3e8ef" stroke-width="2"/>
  <circle cx="285" cy="505" r="4" fill="#3563e9" opacity="0.5"/>
  <circle cx="305" cy="505" r="4" fill="#ff6b35" opacity="0.5"/>
  <circle cx="325" cy="505" r="4" fill="#00d98b" opacity="0.5"/>
  <circle cx="285" cy="525" r="4" fill="#00d98b" opacity="0.5"/>
  <circle cx="305" cy="525" r="4" fill="#3563e9" opacity="0.5"/>
  <circle cx="325" cy="525" r="4" fill="#ff6b35" opacity="0.5"/>
  <circle cx="285" cy="545" r="4" fill="#ff6b35" opacity="0.5"/>
  <circle cx="305" cy="545" r="4" fill="#00d98b" opacity="0.5"/>
  <circle cx="325" cy="545" r="4" fill="#3563e9" opacity="0.5"/>
  <!-- Action button -->
  <rect x="60" y="600" width="280" height="50" rx="16" fill="url(#brandGrad)"/>
  <text x="200" y="632" font-family="Arial, sans-serif" font-size="16" font-weight="700" fill="#ffffff" text-anchor="middle">Save Design</text>
  <!-- Bottom nav indicators -->
  <circle cx="200" cy="690" r="6" fill="#3563e9"/>
  <circle cx="230" cy="690" r="5" fill="#d1d5db"/>
  <circle cx="170" cy="690" r="5" fill="#d1d5db"/>
</svg>